<svg width="222" height="227" viewBox="0 0 222 227" fill="none" xmlns="http://www.w3.org/2000/svg">
<path d="M10.36 72.1189C10.9966 70.0344 11.7455 67.9499 12.5818 65.9029C14.4541 61.4344 16.7508 57.178 19.4718 53.1713C22.1554 49.1646 25.2385 45.445 28.6211 42.0624C32.0411 38.6299 35.7607 35.5843 39.7674 32.9131C43.7741 30.1921 48.0804 27.858 52.549 25.9732C57.0924 24.0634 61.823 22.5906 66.666 21.592C71.5964 20.5935 76.6516 20.0942 81.6943 20.0942C85.6136 20.0942 89.4206 20.3938 93.1277 20.9679C98.8944 21.8417 104.411 23.3894 109.591 25.5238C109.791 26.3601 109.928 27.2339 109.928 28.1076C109.928 28.6069 109.878 29.1061 109.791 29.568C109.08 34.3361 104.986 38.0058 100.018 38.0058C94.5881 38.0058 90.1695 33.6121 90.1321 28.195C53.7971 29.4432 22.5673 51.9606 8.27552 83.1904C2.92077 94.886 0 107.917 0 121.61C0 133.043 2.04704 144.04 5.85403 154.188C6.06622 145.925 10.36 138.698 16.8007 134.354C16.8381 134.304 16.8881 134.304 16.8881 134.304C16.8881 134.354 16.8381 134.391 16.8381 134.429C12.6192 140.158 10.1603 147.26 10.1603 154.937C10.1603 160.329 11.371 165.459 13.5803 170.052C13.6552 170.252 13.7925 170.464 13.9049 170.676C14.9908 172.424 16.1267 174.134 17.3249 175.806C17.8242 171.924 18.9601 168.242 20.6326 164.91C20.2457 166.62 20.046 168.38 20.046 170.177C20.046 178.989 25.1012 185.929 31.442 191.596C38.9062 198.274 47.8183 203.841 57.005 207.71C54.0343 203.579 51.4131 199.272 49.1039 194.679C49.054 194.629 49.054 194.554 49.0166 194.517C48.2177 192.969 47.4688 191.384 46.7948 189.749C44.9225 185.58 43.3747 181.273 42.164 176.805C41.0032 172.723 40.0795 168.579 39.4928 164.323C39.4055 163.899 39.3306 163.487 39.3306 163.062C39.4429 163.611 39.6676 164.148 39.8299 164.647C41.128 168.367 42.6258 171.999 44.3858 175.469C46.6824 180.225 49.4285 184.743 52.5739 188.95C53.4476 190.21 54.3713 191.421 55.3324 192.632C60.2503 198.686 65.9046 204.078 72.0707 208.709C74.7543 210.668 77.5128 212.516 80.3837 214.138C94.0888 222.239 110.028 226.882 127.066 226.882C127.902 226.882 128.789 226.882 129.612 226.795C121.175 223.675 113.286 219.406 106.109 214.226C97.8459 208.259 90.5315 201.032 84.4278 192.894C82.593 190.423 80.8455 187.839 79.2104 185.168C77.1633 181.835 75.3285 178.365 73.6933 174.783C72.52 172.361 71.5215 169.89 70.6103 167.344C68.3136 161.165 66.6785 154.737 65.6799 148.096C64.8811 143.129 64.5066 138.073 64.5066 132.906C64.5066 130.647 64.594 128.437 64.7563 126.191C64.956 122.721 65.3929 119.251 65.967 115.831C69.1 97.8317 77.4005 79.9201 89.6078 66.1775C91.5675 63.9557 93.7393 61.9586 96.1234 60.1987C105.847 52.9841 118.004 50.3504 129.912 49.5516C137.301 49.0897 151.705 49.7513 151.705 60.2735C151.705 62.2457 151.069 64.0805 149.945 65.5409C148.685 67.2135 146.85 68.3743 144.716 68.8362C146.813 68.6614 148.822 68.1247 150.694 67.3758C154.077 65.9528 157.048 63.7435 159.294 60.9476C160.168 59.8991 160.93 58.7757 161.554 57.5525C162.465 55.9298 163.139 54.2198 163.563 52.385C163.763 51.636 163.925 50.8871 163.975 50.0883C164.15 49.1272 164.225 48.1161 164.225 47.1176C164.225 41.6505 162.178 36.5953 158.833 32.7883C156.199 29.7053 152.692 27.3961 148.772 26.1979C150.732 24.5253 151.993 22.0663 151.993 19.3078C151.993 17.4231 151.368 15.6257 150.283 14.0405C145.939 7.68715 135.953 5.47785 128.938 3.59308C120.675 1.38377 112.15 0.173022 103.588 0.0107564C86.5123 -0.238882 69.3496 3.85519 54.5211 12.4552C41.9518 19.7572 31.1424 29.9924 23.1165 42.1373C19.0724 48.241 15.7647 54.8314 13.2683 61.7589C13.0561 62.3081 12.8439 62.8448 12.6816 63.4315C11.733 66.2649 10.9841 69.1856 10.36 72.1189Z" fill="#0052FF"/>
<path d="M170.129 155.011C199.586 148.421 221.579 122.196 221.579 90.742C221.579 88.4453 221.454 86.236 221.255 84.0267C221.005 81.8049 220.668 79.6081 220.256 77.4737C218.034 66.6144 213.154 56.7536 206.339 48.5655C192.309 86.4107 155.937 113.384 113.224 113.384C112.674 113.384 112.138 113.384 111.589 113.334C103.375 112.872 96.0984 109.115 91.0058 103.349C89.2833 101.464 87.8229 99.342 86.6621 96.9954C85.2891 94.3243 84.3779 91.391 83.9036 88.308C85.9256 126.266 117.255 156.447 155.712 156.447C160.643 156.459 165.473 155.96 170.129 155.011Z" fill="#0052FF"/>
</svg>
