<svg width="915" height="182" viewBox="0 0 915 182" fill="none" xmlns="http://www.w3.org/2000/svg">
<path d="M914.16 63.1C914.16 71.28 907.92 77.54 899.75 77.54C891.58 77.54 885.34 71.28 885.34 63.1C885.34 55.4 891.58 49.15 899.75 49.15C907.92 48.66 914.16 54.92 914.16 63.1ZM888.71 63.1C888.71 69.36 893.51 74.65 899.76 74.65C906 74.65 910.33 69.84 910.33 63.58C910.33 57.32 905.52 52.03 899.28 52.03C893.51 51.55 888.71 56.84 888.71 63.1ZM897.35 70.31H893.99V56.36C895.43 55.88 896.87 55.88 899.27 55.88C902.15 55.88 903.11 56.36 904.08 56.84C905.04 57.32 905.52 58.76 905.52 59.73C905.52 61.17 904.08 62.62 902.64 63.1C904.08 63.58 904.56 64.54 905.04 66.47C905.52 68.39 905.52 69.36 906 69.84H902.64C902.16 69.36 902.16 67.92 901.68 66.47C901.2 65.03 900.72 64.06 898.8 64.06H897.36V70.31H897.35ZM897.35 62.13H898.79C900.71 62.13 902.15 61.65 902.15 60.21C902.15 58.77 901.19 58.29 899.27 58.29C898.31 58.29 897.83 58.29 897.35 58.29V62.13Z" fill="#0052FF"/>
<path d="M213.61 31.27H230.3V46.04H213.61V31.27ZM214.25 56.44H229.79V124.23H214.25V56.44Z" fill="#0052FF"/>
<path d="M262.4 77.23H243.39V92.51H262.4V77.23Z" fill="#0052FF"/>
<path d="M273.5 111.13L283 99.84C291.6 107.28 300.33 111.52 311.37 111.52C321.13 111.52 327.29 106.89 327.29 100.22V99.96C327.29 93.54 323.7 90.07 307 86.22C287.87 81.59 277.08 75.95 277.08 59.38V59.13C277.08 43.73 289.92 33.06 307.77 33.06C320.87 33.06 331.27 37.04 340.38 44.36L331.91 56.3C323.81 50.27 315.73 47.05 307.51 47.05C298.25 47.05 292.87 51.8 292.87 57.71V57.96C292.87 64.9 296.98 67.98 314.31 72.08C333.31 76.71 343.07 83.52 343.07 98.4V98.66C343.07 115.48 329.85 125.5 310.97 125.5C297.25 125.52 284.28 120.76 273.5 111.13Z" fill="#0052FF"/>
<path d="M358.36 105.48V69.78H349.75V56.43H358.36V37.81H373.89V56.43H392.12V69.78H373.89V103.04C373.89 109.07 376.97 111.51 382.24 111.51C385.7 111.51 388.78 110.74 391.86 109.2V121.91C388.01 124.1 383.76 125.38 377.86 125.38C366.44 125.39 358.36 120.37 358.36 105.48Z" fill="#0052FF"/>
<path d="M403.8 56.43H419.33V71.71C423.57 61.56 431.4 54.63 443.34 55.14V71.58H442.44C428.83 71.58 419.32 80.44 419.32 98.41V124.21H403.8V56.43Z" fill="#0052FF"/>
<path d="M445.01 104.72V104.46C445.01 89.82 456.44 82.63 473 82.63C480.58 82.63 485.97 83.78 491.23 85.45V83.78C491.23 74.16 485.32 69.01 474.41 69.01C466.83 69.01 461.19 70.68 455.02 73.25L450.9 61.05C458.35 57.72 465.67 55.53 476.46 55.53C486.6 55.53 494.18 58.22 498.93 63.11C503.93 67.99 506.24 75.18 506.24 84.04V124.23H491.09V115.75C486.46 121.28 479.4 125.64 469.01 125.64C456.31 125.64 445.01 118.32 445.01 104.72ZM491.49 99.83V95.21C487.51 93.67 482.24 92.51 476.08 92.51C466.07 92.51 460.16 96.75 460.16 103.8V104.06C460.16 110.61 465.93 114.33 473.38 114.33C483.66 114.34 491.49 108.43 491.49 99.83Z" fill="#0052FF"/>
<path d="M523.32 105.48V69.78H514.72V56.43H523.32V37.81H538.85V56.43H557.09V69.78H538.85V103.04C538.85 109.07 541.94 111.51 547.2 111.51C550.67 111.51 553.75 110.74 556.83 109.2V121.91C552.98 124.1 548.74 125.38 542.83 125.38C531.41 125.39 523.32 120.37 523.32 105.48Z" fill="#0052FF"/>
<path d="M563.12 90.59V90.33C563.12 70.94 576.86 55.02 596.25 55.02C617.82 55.02 628.73 71.97 628.73 91.48C628.73 92.89 628.6 94.3 628.47 95.84H578.65C580.32 106.89 588.15 113.06 598.17 113.06C605.75 113.06 611.14 110.23 616.53 104.96L625.65 113.06C619.22 120.76 610.37 125.77 597.91 125.77C578.27 125.77 563.12 111.52 563.12 90.59ZM613.32 85.58C612.29 75.57 606.39 67.73 596.12 67.73C586.62 67.73 579.94 75.05 578.53 85.58H613.32Z" fill="#0052FF"/>
<path d="M640.14 136.94L645.92 125.26C653.24 129.75 660.81 132.45 670.06 132.45C683.94 132.45 691.51 125.26 691.51 111.65V106.38C685.86 113.7 678.8 118.84 667.63 118.84C651.71 118.84 636.82 107.02 636.82 87.12V86.87C636.82 66.84 651.84 55.03 667.63 55.03C679.06 55.03 686.12 60.29 691.38 66.58V56.44H706.92V110.37C706.92 121.8 703.96 130.27 698.31 135.92C692.15 142.09 682.65 145.04 670.45 145.04C659.26 145.03 648.87 142.21 640.14 136.94ZM691.62 86.99V86.73C691.62 75.69 682.51 68.11 671.72 68.11C660.94 68.11 652.46 75.55 652.46 86.73V86.99C652.46 98.03 661.06 105.61 671.72 105.61C682.51 105.61 691.62 98.04 691.62 86.99Z" fill="#0052FF"/>
<path d="M722.55 31.27H739.24V46.04H722.55V31.27ZM723.2 56.44H738.74V124.23H723.2V56.44Z" fill="#0052FF"/>
<path d="M751.18 90.59V90.33C751.18 70.94 764.92 55.02 784.31 55.02C805.88 55.02 816.79 71.97 816.79 91.48C816.79 92.89 816.66 94.3 816.53 95.84H766.71C768.38 106.89 776.22 113.06 786.23 113.06C793.81 113.06 799.2 110.23 804.59 104.96L813.71 113.06C807.28 120.76 798.43 125.77 785.97 125.77C766.33 125.77 751.18 111.52 751.18 90.59ZM801.38 85.58C800.35 75.57 794.45 67.73 784.18 67.73C774.68 67.73 768 75.05 766.59 85.58H801.38Z" fill="#0052FF"/>
<path d="M822.81 115.37L829.74 104.84C837.19 110.36 845.02 113.18 851.96 113.18C858.63 113.18 862.49 110.36 862.49 105.87V105.61C862.49 100.35 855.29 98.55 847.34 96.11C837.32 93.29 826.15 89.18 826.15 76.21V75.95C826.15 63.11 836.81 55.28 850.29 55.28C858.76 55.28 868.01 58.23 875.2 62.98L869.03 74.03C862.49 70.05 855.55 67.61 849.9 67.61C843.86 67.61 840.4 70.43 840.4 74.29V74.54C840.4 79.55 847.72 81.6 855.68 84.17C865.57 87.25 876.74 91.75 876.74 103.94V104.2C876.74 118.45 865.7 125.52 851.58 125.52C841.94 125.51 831.29 122.04 822.81 115.37Z" fill="#0052FF"/>
<path d="M9.14009 57.9C9.65009 56.23 10.2501 54.56 10.9201 52.92C12.4201 49.34 14.2601 45.93 16.4401 42.72C18.5901 39.51 21.0601 36.53 23.7701 33.82C26.5101 31.07 29.4901 28.63 32.7001 26.49C35.9101 24.31 39.3601 22.44 42.9401 20.93C46.5801 19.4 50.3701 18.22 54.2501 17.42C58.2001 16.62 62.2501 16.22 66.2901 16.22C69.4301 16.22 72.4801 16.46 75.4501 16.92C80.0701 17.62 84.4901 18.86 88.6401 20.57C88.8001 21.24 88.9101 21.94 88.9101 22.64C88.9101 23.04 88.8701 23.44 88.8001 23.81C88.2301 27.63 84.9501 30.57 80.9701 30.57C76.6201 30.57 73.0801 27.05 73.0501 22.71C43.9401 23.71 18.9201 41.75 7.47009 66.77C3.18009 76.14 0.840088 86.58 0.840088 97.55C0.840088 106.71 2.48009 115.52 5.53009 123.65C5.70009 117.03 9.14009 111.24 14.3001 107.76C14.3301 107.72 14.3701 107.72 14.3701 107.72C14.3701 107.76 14.3301 107.79 14.3301 107.82C10.9501 112.41 8.98009 118.1 8.98009 124.25C8.98009 128.57 9.95009 132.68 11.7201 136.36C11.7801 136.52 11.8901 136.69 11.9801 136.86C12.8501 138.26 13.7601 139.63 14.7201 140.97C15.1201 137.86 16.0301 134.91 17.3701 132.24C17.0601 133.61 16.9001 135.02 16.9001 136.46C16.9001 143.52 20.9501 149.08 26.0301 153.62C32.0101 158.97 39.1501 163.43 46.5101 166.53C44.1301 163.22 42.0301 159.77 40.1801 156.09C40.1401 156.05 40.1401 155.99 40.1101 155.96C39.4701 154.72 38.8701 153.45 38.3301 152.14C36.8301 148.8 35.5901 145.35 34.6201 141.77C33.6901 138.5 32.9501 135.18 32.4801 131.77C32.4101 131.43 32.3501 131.1 32.3501 130.76C32.4401 131.2 32.6201 131.63 32.7501 132.03C33.7901 135.01 34.9901 137.92 36.4001 140.7C38.2401 144.51 40.4401 148.13 42.9601 151.5C43.6601 152.51 44.4001 153.48 45.1701 154.45C49.1101 159.3 53.6401 163.62 58.5801 167.33C60.7301 168.9 62.9401 170.38 65.2401 171.68C76.2201 178.17 88.9901 181.89 102.64 181.89C103.31 181.89 104.02 181.89 104.68 181.82C97.9201 179.32 91.6001 175.9 85.8501 171.75C79.2301 166.97 73.3701 161.18 68.4801 154.66C67.0101 152.68 65.6101 150.61 64.3001 148.47C62.6601 145.8 61.1901 143.02 59.8801 140.15C58.9401 138.21 58.1401 136.23 57.4101 134.19C55.5701 129.24 54.2601 124.09 53.4601 118.77C52.8201 114.79 52.5201 110.74 52.5201 106.6C52.5201 104.79 52.5901 103.02 52.7201 101.22C52.8801 98.44 53.2301 95.66 53.6901 92.92C56.2001 78.5 62.8501 64.15 72.6301 53.14C74.2001 51.36 75.9401 49.76 77.8501 48.35C85.6401 42.57 95.3801 40.46 104.92 39.82C110.84 39.45 122.38 39.98 122.38 48.41C122.38 49.99 121.87 51.46 120.97 52.63C119.96 53.97 118.49 54.9 116.78 55.27C118.46 55.13 120.07 54.7 121.57 54.1C124.28 52.96 126.66 51.19 128.46 48.95C129.16 48.11 129.77 47.21 130.27 46.23C131 44.93 131.54 43.56 131.88 42.09C132.04 41.49 132.17 40.89 132.21 40.25C132.35 39.48 132.41 38.67 132.41 37.87C132.41 33.49 130.77 29.44 128.09 26.39C125.98 23.92 123.17 22.07 120.03 21.11C121.6 19.77 122.61 17.8 122.61 15.59C122.61 14.08 122.11 12.64 121.24 11.37C117.76 6.28002 109.76 4.51002 104.14 3.00002C97.5201 1.23002 90.6901 0.260017 83.8301 0.130017C70.1501 -0.0699835 56.4001 3.21002 44.5201 10.1C34.4501 15.95 25.7901 24.15 19.3601 33.88C16.1201 38.77 13.4701 44.05 11.4701 49.6C11.3001 50.04 11.1301 50.47 11.0001 50.94C10.2401 53.21 9.64009 55.55 9.14009 57.9Z" fill="#0052FF"/>
<path d="M137.14 124.31C160.74 119.03 178.36 98.02 178.36 72.82C178.36 70.98 178.26 69.21 178.1 67.44C177.9 65.66 177.63 63.9 177.3 62.19C175.52 53.49 171.61 45.59 166.15 39.03C154.91 69.35 125.77 90.96 91.5501 90.96C91.1101 90.96 90.6801 90.96 90.2401 90.92C83.6601 90.55 77.8301 87.54 73.7501 82.92C72.3701 81.41 71.2001 79.71 70.2701 77.83C69.1701 75.69 68.4401 73.34 68.0601 70.87C69.6801 101.28 94.7801 125.46 125.59 125.46C129.54 125.47 133.41 125.07 137.14 124.31Z" fill="#0052FF"/>
</svg>
